<svg width="25" height="25" viewBox="0 0 25 25" fill="none" xmlns="http://www.w3.org/2000/svg">
<path d="M3.61133 6.5H5.63633H21.8363" stroke="#333333" stroke-width="2" stroke-linecap="round" stroke-linejoin="round"/>
<path d="M19.8117 6.5V20.5C19.8117 21.0304 19.5984 21.5391 19.2186 21.9142C18.8388 22.2893 18.3238 22.5 17.7867 22.5H7.66172C7.12466 22.5 6.60959 22.2893 6.22983 21.9142C5.85007 21.5391 5.63672 21.0304 5.63672 20.5V6.5M8.67422 6.5V4.5C8.67422 3.96957 8.88757 3.46086 9.26733 3.08579C9.64709 2.71071 10.1622 2.5 10.6992 2.5H14.7492C15.2863 2.5 15.8013 2.71071 16.1811 3.08579C16.5609 3.46086 16.7742 3.96957 16.7742 4.5V6.5" stroke="#333333" stroke-width="2" stroke-linecap="round" stroke-linejoin="round"/>
<path d="M10.6992 11.5V17.5" stroke="#333333" stroke-width="2" stroke-linecap="round" stroke-linejoin="round"/>
<path d="M14.75 11.5V17.5" stroke="#333333" stroke-width="2" stroke-linecap="round" stroke-linejoin="round"/>
</svg>
