<svg width="21" height="20" viewBox="0 0 21 20" fill="none" xmlns="http://www.w3.org/2000/svg">
<path d="M16.8265 9.16669H5.1598C4.23933 9.16669 3.49313 9.91288 3.49313 10.8334V16.6667C3.49313 17.5872 4.23933 18.3334 5.1598 18.3334H16.8265C17.7469 18.3334 18.4931 17.5872 18.4931 16.6667V10.8334C18.4931 9.91288 17.7469 9.16669 16.8265 9.16669Z" stroke="#3C7E00" stroke-width="2" stroke-linecap="round" stroke-linejoin="round"/>
<path d="M6.82648 9.16669V5.83335C6.82648 4.72828 7.26546 3.66848 8.04687 2.88708C8.82827 2.10567 9.88807 1.66669 10.9931 1.66669C12.0982 1.66669 13.158 2.10567 13.9394 2.88708C14.7208 3.66848 15.1598 4.72828 15.1598 5.83335V9.16669" stroke="#3C7E00" stroke-width="2" stroke-linecap="round" stroke-linejoin="round"/>
</svg>
